
<svg width="100" height="100" xmlns="http://www.w3.org/2000/svg">
  <defs>
    <pattern id="circuit" patternUnits="userSpaceOnUse" width="100" height="100">
      <path d="M10,10 L30,10 L30,30 L50,30 L50,50 L70,50 L70,70 L90,70" fill="none" stroke="#0e76a8" stroke-width="1"/>
      <path d="M10,90 L30,90 L30,70 L50,70 L50,50 L70,50 L70,30 L90,30" fill="none" stroke="#0e76a8" stroke-width="1"/>
      <circle cx="10" cy="10" r="2" fill="#0e76a8"/>
      <circle cx="30" cy="30" r="2" fill="#0e76a8"/>
      <circle cx="50" cy="50" r="2" fill="#0e76a8"/>
      <circle cx="70" cy="70" r="2" fill="#0e76a8"/>
      <circle cx="90" cy="90" r="2" fill="#0e76a8"/>
      <circle cx="10" cy="90" r="2" fill="#0e76a8"/>
      <circle cx="30" cy="70" r="2" fill="#0e76a8"/>
      <circle cx="70" cy="30" r="2" fill="#0e76a8"/>
      <circle cx="90" cy="10" r="2" fill="#0e76a8"/>
    </pattern>
  </defs>
  <rect width="100%" height="100%" fill="url(#circuit)"/>
</svg>
